<svg id="Layer_1" data-name="Layer 1" xmlns="http://www.w3.org/2000/svg" viewBox="0 0 278 278"><defs><style>.cls-1{fill:#019681;}.cls-2{fill:#fff;}.cls-3{fill:#414142;}</style></defs><title>Icons</title><rect class="cls-1" x="-1007.09" y="-548.25" width="8333.52" height="1634.65"/><rect class="cls-1" y="20.69" width="278" height="236.62"/><path class="cls-2" d="M174.95,94.46c-16.38-6.56-33.58-9.31-51.51-5.7-35.16,7.08-59.14,27.1-80.69,50.63C59.18,157.93,78,173.13,102.06,183.1c23.36,9.68,47.11,10.52,71,1.2,24.7-9.65,43.87-24.92,60.11-43.13,0.77-.86,1.36-1.83,2.12-2.87C218.83,119.83,199.65,104.35,174.95,94.46Z"/><path class="cls-3" d="M139,104.18c-23,0-41.7,15.89-41.7,35.49S116,175.16,139,175.16s41.7-15.89,41.7-35.49S162,104.18,139,104.18Zm-16.58,34a6.43,6.43,0,1,1,6-6.52A6.34,6.34,0,0,1,122.42,138.2ZM139,166c-6.1,0-11.45-5.07-11.47-10.91,0-4.71,5.11-8.56,11.4-8.56s11.46,3.85,11.47,8.51C150.45,160.87,145.17,165.95,139,166Zm16.42-27.77a6.44,6.44,0,1,1,6.05-6.43A6.21,6.21,0,0,1,155.46,138.2Z"/></svg>