<svg id="Layer_1" data-name="Layer 1" xmlns="http://www.w3.org/2000/svg" viewBox="0 0 278 278"><defs><style>.cls-1{fill:#019681;}.cls-2{fill:#fff;}.cls-3{fill:#414142;}</style></defs><title>Icons</title><rect class="cls-1" x="-149" y="-548.25" width="8333.52" height="1634.65"/><rect class="cls-1" y="20.69" width="278" height="236.62"/><path class="cls-2" d="M175.26,94.64c-16.33-6.64-33.51-9.48-51.47-6-35.21,6.9-59.33,26.8-81.05,50.22,16.3,18.62,35,33.92,59,44,23.29,9.8,47,10.76,71,1.56,24.77-9.52,44-24.7,60.41-42.82,0.77-.86,1.37-1.83,2.14-2.86C219,120.24,199.89,104.66,175.26,94.64Z"/><path class="cls-3" d="M139.44,104.2c-23-.14-41.86,15.5-42.14,34.87-0.28,19.76,18.21,36,41.24,36.11s42.09-15.72,42.15-35.35S162.24,104.34,139.44,104.2Zm-5.64,52.87H118.61V144.14H133.8v12.93Zm0-21.78H118.65V122.36h15.19v12.93ZM159.37,157H144.18V144.11h15.19V157Zm0-21.75H144.23v-13h15.16v13Z"/></svg>