<svg id="Layer_1" data-name="Layer 1" xmlns="http://www.w3.org/2000/svg" viewBox="0 0 278 278"><defs><style>.cls-1{fill:#019681;}.cls-2{fill:#010101;}.cls-3{fill:none;stroke:#fff;stroke-miterlimit:10;}.cls-4{fill:#fff;}.cls-5{fill:#414142;}</style></defs><title>Icons</title><rect class="cls-1" x="-584.04" y="-548.25" width="8333.52" height="1634.65"/><rect class="cls-1" y="20.69" width="278" height="236.62"/><path class="cls-2" d="M140.3,105.9c-21.83,0-39.74,15.11-39.81,33.7s17.75,33.82,39.58,33.89,39.74-15.13,39.81-33.7S162.11,105.94,140.3,105.9Z"/><path class="cls-3" d="M156.08,126a6.13,6.13,0,1,1-5.8,6.13A6,6,0,0,1,156.08,126Z"/><path class="cls-3" d="M124.42,126a6.13,6.13,0,1,1-5.67,6A6,6,0,0,1,124.42,126Z"/><path class="cls-3" d="M140.64,165.68c-10.82.11-20.93-6.38-22.69-14.72h44.48C161,158.86,151,165.57,140.64,165.68Z"/><path class="cls-4" d="M175.26,94.64c-16.33-6.64-33.51-9.48-51.47-6-35.21,6.9-59.33,26.8-81.05,50.22,16.3,18.62,35,33.92,59,44,23.29,9.8,47,10.76,71,1.56,24.77-9.52,44-24.7,60.41-42.82,0.77-.86,1.37-1.83,2.14-2.86C219,120.24,199.89,104.66,175.26,94.64Z"/><path class="cls-5" d="M139.11,104.2c-22.93,0-41.74,15.87-41.81,35.39s18.64,35.53,41.58,35.6,41.74-15.89,41.82-35.4S162,104.24,139.11,104.2Zm16.56,21.11a6.44,6.44,0,1,1-6.09,6.43A6.31,6.31,0,0,1,155.67,125.3Zm-33.25,0a6.28,6.28,0,0,1,6,6.32,6.34,6.34,0,0,1-6,6.52A6.44,6.44,0,0,1,122.42,125.3Zm17,39.34c-11.36.12-22-6.7-23.83-15.46,8.7,5.63,15.61,7,23.37,7a41.57,41.57,0,0,0,23.35-7C160.81,157.48,150.3,164.53,139.47,164.64Z"/></svg>