<svg id="Layer_1" data-name="Layer 1" xmlns="http://www.w3.org/2000/svg" viewBox="0 0 278 278"><defs><style>.cls-1{fill:#019681;}.cls-2{fill:#fff;}.cls-3{fill:#414142;}</style></defs><title>Icons</title><rect class="cls-1" x="-1850.17" y="-548.25" width="8333.52" height="1634.65"/><rect class="cls-1" y="20.69" width="278" height="236.62"/><path class="cls-2" d="M55.14,141V121c0.58-2.91,1.25-5.81,1.72-8.73C59,98.76,69.75,85,89.27,82.09a329.1,329.1,0,0,1,99.65.09C207,85,217,95.07,220.65,109.91c3.42,13.78,3.12,27.66.36,41.5-2.67,13.35-13.67,26.85-33.82,28.94-13.16,1.36-26.38,2.27-39.56,3.47a14.23,14.23,0,0,0-5.35,1.42c-7.39,4.06-11.47,8.64-22.05,12.29-8.64,3.19-27,6.64-28.41,6.28-0.64-.85,12.92-13.63,14-21.32L93.92,181c-20.67-2.67-32.83-12.38-36.76-29.44C56.36,148,55.81,144.52,55.14,141Z"/><path class="cls-3" d="M161.56,163.85l8.36-1c14.48-1.73,23-8,25.76-19,0.56-2.25.95-4.52,1.42-6.78q0-6.47,0-12.93c-0.41-1.88-.88-3.75-1.2-5.64-1.52-8.75-9-17.65-22.71-19.52a249.84,249.84,0,0,0-69.84.06c-12.67,1.83-19.66,8.33-22.24,17.93a56.14,56.14,0,0,0-.25,26.83c1.87,8.63,9.65,17,23.7,18.71C125.21,165,161.56,163.85,161.56,163.85Z"/><path class="cls-2" d="M105.63,130.39c0-3.14,2.89-5.59,6.59-5.58s6.59,2.53,6.55,5.64-3,5.52-6.54,5.54S105.63,133.5,105.63,130.39Z"/><path class="cls-2" d="M166.44,124.81c3.7,0,6.58,2.44,6.58,5.58s-3,5.62-6.6,5.6-6.5-2.52-6.54-5.55S162.78,124.82,166.44,124.81Z"/><path class="cls-2" d="M139.28,136c-3.64,0-6.61-2.58-6.54-5.65s3-5.51,6.56-5.53,6.61,2.51,6.6,5.61S143,136,139.28,136Z"/></svg>